<?xml version="1.0" encoding="utf-8"?>
<!-- Generator: Adobe Illustrator 23.0.3, SVG Export Plug-In . SVG Version: 6.00 Build 0)  -->
<svg version="1.1" id="Layer_1" xmlns="http://www.w3.org/2000/svg" xmlns:xlink="http://www.w3.org/1999/xlink" x="0px" y="0px"
	 viewBox="0 0 150 150" style="enable-background:new 0 0 150 150;" xml:space="preserve">
<style type="text/css">
	.st0{fill:#343840;}
</style>
<g>
	<path class="st0" d="M75,7.6c37.1,0,67.4,30.2,67.4,67.4s-30.2,67.4-67.4,67.4S7.6,112.1,7.6,75S37.9,7.6,75,7.6 M75,1.6
		C34.5,1.6,1.6,34.5,1.6,75s32.8,73.4,73.4,73.4s73.4-32.8,73.4-73.4S115.5,1.6,75,1.6L75,1.6z"/>
</g>
<g>
	<g>
		<path class="st0" d="M55.4,75.1c-1.5-7-6.8-11.8-12.2-11.4l-4.5-7.2v9c-3.6,2.7-5.4,8.3-4.1,14.2c1.6,7.5,7.6,12.5,13.3,11.3
			C53.7,89.7,57,82.6,55.4,75.1z"/>
	</g>
	<g>
		<path class="st0" d="M111.2,65.4v-9l-4.5,7.2c-5.4-0.4-10.7,4.5-12.2,11.4c-1.6,7.5,1.7,14.5,7.5,15.7c5.7,1.2,11.7-3.8,13.3-11.3
			C116.6,73.8,114.8,68.2,111.2,65.4z"/>
	</g>
	<g>
		<path class="st0" d="M86.7,70.3c6.6,0.7,12.7-5.8,13.6-14.4c0.7-6.8-2-12.9-6.5-15.5l-1.1-10.1L88.6,39
			c-6.1,0.2-11.5,6.4-12.3,14.4C75.4,62.1,80.1,69.7,86.7,70.3z"/>
	</g>
	<g>
		<path class="st0" d="M63.1,70.3c6.6-0.7,11.3-8.2,10.4-16.9c-0.8-8.1-6.2-14.2-12.3-14.4l-4.1-8.8L56,40.4
			c-4.4,2.6-7.2,8.7-6.5,15.5C50.4,64.6,56.5,71,63.1,70.3z"/>
	</g>
	<g>
		<path class="st0" d="M91.7,91.1c-1.3-0.1-2.4-0.9-3-2c-2.1-3.7-7.4-11.3-15-11.3c-7.3,0-11.4,6.9-13.1,10.7
			c-0.6,1.3-1.8,2.2-3.3,2.4c-5.3,0.7-11.1,7.3-9.9,16.7c1.4,10.8,9.4,13.4,15.7,10.6s20.1-3.2,25.3,0s15.2,2.3,14.6-13.1
			C102.6,93.7,95.3,91.5,91.7,91.1z"/>
	</g>
</g>
</svg>
