<?xml version="1.0" encoding="UTF-8" standalone="no"?>
<svg
   xmlns:dc="http://purl.org/dc/elements/1.1/"
   xmlns:cc="http://creativecommons.org/ns#"
   xmlns:rdf="http://www.w3.org/1999/02/22-rdf-syntax-ns#"
   xmlns:svg="http://www.w3.org/2000/svg"
   xmlns="http://www.w3.org/2000/svg"
   xmlns:sodipodi="http://sodipodi.sourceforge.net/DTD/sodipodi-0.dtd"
   xmlns:inkscape="http://www.inkscape.org/namespaces/inkscape"
   width="171.39342mm"
   height="104.90144mm"
   viewBox="0 0 171.39342 104.90144"
   version="1.1"
   id="svg8"
   inkscape:version="1.0.2 (e86c870, 2021-01-15)"
   sodipodi:docname="tez_bg.svg">
  <defs
     id="defs2" />
  <sodipodi:namedview
     id="base"
     pagecolor="#ffffff"
     bordercolor="#666666"
     borderopacity="1.0"
     inkscape:pageopacity="0.0"
     inkscape:pageshadow="2"
     inkscape:zoom="1.0250296"
     inkscape:cx="605.4849"
     inkscape:cy="144.98459"
     inkscape:document-units="mm"
     inkscape:current-layer="layer1"
     inkscape:document-rotation="0"
     showgrid="false"
     inkscape:window-width="1920"
     inkscape:window-height="1013"
     inkscape:window-x="-9"
     inkscape:window-y="-9"
     inkscape:window-maximized="1" />
  <metadata
     id="metadata5">
    <rdf:RDF>
      <cc:Work
         rdf:about="">
        <dc:format>image/svg+xml</dc:format>
        <dc:type
           rdf:resource="http://purl.org/dc/dcmitype/StillImage" />
        <dc:title></dc:title>
      </cc:Work>
    </rdf:RDF>
  </metadata>
  <g
     inkscape:label="Layer 1"
     inkscape:groupmode="layer"
     id="layer1"
     transform="translate(-17.946923,-18.089576)">
    <path
       style="opacity:0.81;fill:#cccccc;stroke-width:0.0669226;stroke-miterlimit:3.5"
       d="m 75.190137,66.572757 c -1.956514,-0.24028 -3.408884,-0.89903 -4.515002,-2.04784 -0.82203,-0.85378 -1.34778,-1.77429 -1.64819,-2.88576 -0.21409,-0.79212 -0.21173,-1.99249 0.005,-2.53259 0.18741,-0.46706 0.71102,-1.05822 1.10716,-1.24999 0.51825,-0.25088 1.2066,-0.35739 1.771418,-0.27409 0.98912,0.14586 1.68187,0.636 2.06221,1.45907 0.15921,0.34453 0.17685,0.46113 0.17917,1.18398 0.002,0.76349 -0.007,0.82304 -0.20798,1.24622 -0.25243,0.5328 -0.61708,0.9153 -1.07971,1.13256 -0.1877,0.0881 -0.34251,0.18853 -0.34402,0.22306 -0.005,0.10544 0.65672,0.67963 0.9945,0.86348 0.65414,0.35603 2.363774,0.70708 3.455444,0.70954 2.23173,0.005 4.13633,-1.20742 5.06952,-3.22719 0.70848,-1.53342 1.08549,-4.0614 0.90364,-6.0592 -0.14095,-1.54844 -0.59167,-3.16367 -1.14068,-4.08779 -1.18223,-1.98999 -3.65485,-3.04367 -5.84003,-2.48866 -0.27203,0.0691 -1.095514,0.43072 -1.992214,0.87487 -0.84069,0.4164 -1.54158,0.75709 -1.55753,0.75709 -0.016,0 -0.0275,-0.20296 -0.0257,-0.45102 l 0.003,-0.45101 2.36994,-3.10701 c 1.303464,-1.708857 3.053444,-4.004472 3.888834,-5.101371 0.8354,-1.096896 1.79703,-2.358315 2.13696,-2.803154 0.33994,-0.444839 0.61807,-0.829247 0.61807,-0.854244 0,-0.04638 -2.62859,-0.09491 -8.895344,-0.164246 l -3.516538,-0.03891 -0.0444,4.330623 c -0.0925,9.018332 -0.0919,9.077562 0.0868,9.609192 0.3661,1.08888 0.84776,1.68541 1.59842,1.9796 0.8509,0.33348 2.050498,0.14267 2.965158,-0.47164 0.54401,-0.36538 1.400264,-1.19595 1.761244,-1.70841 0.12943,-0.18375 0.28533,-0.37167 0.34644,-0.41761 0.27195,-0.20441 0.75369,-0.005 0.96056,0.39824 0.24574,0.47864 0.12388,1.11021 -0.36799,1.90728 -0.81743,1.32465 -1.951104,2.19051 -3.354874,2.56232 -0.42824,0.11343 -0.71954,0.139 -1.562068,0.13713 -2.8335,-0.006 -4.78768,-0.73572 -5.74259,-2.1435 -0.36962,-0.54491 -0.64636,-1.12404 -0.85502,-1.78928 l -0.18435,-0.58776 0.0132,-3.70837 c 0.007,-2.039599 0.0327,-5.159135 0.0565,-6.932301 l 0.0432,-3.22394 h -3.14676 -3.14677 v -1.141735 -1.141737 l 3.17383,0.04894 3.17383,0.04894 v -2.700281 -2.700281 l -0.70159,-0.699195 -0.70158,-0.699195 v -0.552441 -0.552438 h 2.06991 2.06991 l 0.77296,0.413206 0.77296,0.413206 -0.01,3.545724 -0.01,3.545724 4.333188,0.0405 c 2.383254,0.02228 6.063234,0.04483 8.177734,0.05011 l 3.84454,0.0096 0.7789,0.826141 0.7789,0.826141 -5.04339,4.962359 c -2.77386,2.729298 -5.03389,4.971853 -5.02229,4.983453 0.0116,0.0116 0.27574,-0.054 0.58699,-0.14573 0.77574,-0.22868 1.54556,-0.27229 2.30315,-0.13049 2.26967,0.42482 4.36433,1.74306 5.57241,3.50689 1.26824,1.85169 1.87773,4.00211 1.87773,6.62511 0,2.37925 -0.79319,4.90246 -2.07649,6.60554 -1.3693,1.81719 -3.686,3.04407 -6.50955,3.44733 -0.81246,0.11604 -2.48463,0.11469 -3.44109,-0.003 z"
       id="path847" />
    <path
       style="opacity:0.81;fill:#cccccc;stroke:none;stroke-width:0.26769;stroke-miterlimit:3.5"
       d="m 164.56145,55.456148 c -1.36042,-0.32267 -2.86988,-1.4618 -3.42888,-2.58763 -0.72746,-1.46508 -0.68574,-3.93614 0.0876,-5.18738 0.49462,-0.80031 0.53165,-1.01403 0.23144,-1.33571 -0.48816,-0.52308 -0.96214,-2.02217 -0.96214,-3.04306 0,-1.28556 1.22891,-3.51073 2.30681,-4.17691 2.04922,-1.26649 4.47967,-1.15014 6.29591,0.30139 0.94207,0.7529 1.04226,0.77459 2.27178,0.49182 1.83895,-0.42293 3.37814,0.0473 4.79593,1.46506 1.43495,1.43495 1.87014,2.89773 1.42016,4.77348 -0.59535,2.48169 -2.51572,3.94794 -5.17067,3.94794 -1.45284,0 -1.49658,0.0214 -1.50228,0.73499 -0.0157,1.95982 -1.73892,4.00067 -3.86954,4.58267 -1.18918,0.32483 -1.24407,0.32557 -2.47609,0.0333 z"
       id="path865-8" />
    <path
       style="opacity:0.81;fill:#cccccc;stroke-width:0.26769;stroke-miterlimit:3.5"
       d="m 161.53758,35.599418 c -1.3472,-0.90788 -2.11722,-2.2079 -2.11722,-3.57449 0,-1.62927 0.7389,-2.34693 2.21286,-2.14923 1.34528,0.18044 2.28865,0.86267 3.06131,2.21389 1.63295,2.85566 -0.54106,5.27268 -3.15695,3.50983 z"
       id="path867-7" />
    <path
       style="opacity:0.81;fill:#cccccc;stroke-width:0.26769;stroke-miterlimit:3.5"
       d="m 171.04658,36.898928 c -3.05586,-1.35819 -3.50078,-6.03718 -0.57406,-6.03718 1.83508,0 3.64793,1.85888 3.8485,3.94623 0.11408,1.18727 0.0557,1.36878 -0.6079,1.89079 -0.8374,0.6587 -1.51962,0.70991 -2.66654,0.20016 z"
       id="path869-1" />
    <path
       style="opacity:0.81;fill:#cccccc;stroke-width:0.26769;stroke-miterlimit:3.5"
       d="m 156.21326,40.717718 c -1.57309,-0.62727 -2.67283,-2.25776 -2.67283,-3.96277 0,-3.75699 5.37383,-2.18013 5.81179,1.70537 0.11388,1.01033 0.0337,1.28002 -0.55542,1.86918 -0.72183,0.72183 -1.46635,0.83371 -2.58354,0.38822 z"
       id="path871-9" />
    <path
       style="opacity:0.81;fill:#cccccc;stroke-width:0.26769;stroke-miterlimit:3.5"
       d="m 155.14418,49.804888 c -2.17816,-0.86855 -3.40794,-3.87667 -2.25677,-5.5202 0.56595,-0.808 2.13794,-0.80084 3.34894,0.0152 3.27044,2.20395 2.34372,6.87502 -1.09217,5.50495 z"
       id="path873-6" />
    <path
       style="opacity:0.81;fill:#e6e6e6;stroke:none;stroke-width:1.43082;stroke-miterlimit:3.5"
       d=""
       id="path971"
       transform="scale(0.26458333)" />
    <path
       style="opacity:0.81;fill:#e6e6e6;stroke:none;stroke-width:0.378571;stroke-miterlimit:3.5"
       d="m 42.594428,103.48995 -1.440972,-4.136828 -3.078857,-1.009784 c -1.693371,-0.55538 -3.207956,-1.12626 -3.365744,-1.26863 -0.157788,-0.14237 1.213804,-0.73844 3.047982,-1.32461 l 3.33487,-1.06576 1.487732,-4.30253 c 1.701609,-4.921058 1.442253,-4.995418 3.575307,1.02501 l 1.14788,3.23982 3.39162,1.08389 c 2.02552,0.64731 3.20522,1.19908 2.92887,1.36988 -0.25451,0.1573 -1.65827,0.66012 -3.11946,1.11738 -1.4612,0.457274 -2.84253,1.019294 -3.06964,1.248944 -0.2271,0.22965 -0.97175,2.033398 -1.654773,4.008328 -0.683022,1.97493 -1.354804,3.71698 -1.492851,3.87124 -0.138044,0.15426 -0.89943,-1.5811 -1.691964,-3.85635 z"
       id="path969-3" />
    <path
       style="opacity:0.81;fill:#e6e6e6;stroke:none;stroke-width:0.378571;stroke-miterlimit:3.5"
       d="m 58.533571,111.05978 c -0.81172,-2.17051 -1.071847,-2.49666 -2.437397,-3.05593 l -1.52869,-0.62609 1.52683,-0.52276 c 1.39692,-0.47829 1.604787,-0.7312 2.442907,-2.97232 l 0.91607,-2.44957 0.90092,2.43729 c 0.78483,2.12323 1.06666,2.49198 2.1873,2.86182 1.61081,0.53162 1.62853,0.91439 0.0631,1.36335 -1.06213,0.30461 -1.351,0.683 -2.19282,2.87243 l -0.96953,2.52161 z"
       id="path973-8" />
    <path
       style="opacity:0.81;fill:#e6e6e6;stroke:none;stroke-width:0.378571;stroke-miterlimit:3.5"
       d="m 55.803054,94.387972 c -0.85557,-2.183137 -1.09016,-2.460597 -2.53028,-2.992567 l -1.58728,-0.58634 1.58732,-0.55337 c 1.4517,-0.50609 1.66789,-0.75945 2.53028,-2.965378 l 0.94295,-2.41201 0.89741,2.44993 c 0.862387,2.354338 0.966217,2.471308 2.661267,2.997798 l 1.76386,0.54787 -1.75722,0.49208 c -1.70343,0.47702 -1.7849,0.56764 -2.661267,2.960147 l -0.90405,2.46807 z"
       id="path975-7" />
    <path
       style="opacity:0.81;fill:#e6e6e6;stroke:none;stroke-width:0.133845;stroke-miterlimit:3.5"
       d="m 125.68222,99.442027 c -0.0838,-0.13417 -0.52243,-0.41878 -0.97477,-0.63247 l -0.82242,-0.38852 1.71751,-1.64866 c 2.06693,-1.984059 3.45699,-3.044549 4.91705,-3.751259 0.96424,-0.46672 2.86103,-1.06518 3.37602,-1.06518 0.36304,0 0.84118,0.63546 0.84118,1.11794 0,0.62619 -0.5078,1.03399 -1.84001,1.47766 -1.99087,0.663019 -4.11842,2.107689 -5.78922,3.931079 -1.06373,1.16088 -1.22973,1.27262 -1.42534,0.95941 z"
       id="path1029" />
    <path
       style="opacity:0.81;fill:#e6e6e6;stroke:none;stroke-width:0.126468;stroke-miterlimit:3.5"
       d=""
       id="path1039"
       transform="matrix(0.26458333,0,0,0.26458333,17.946923,18.089576)" />
    <path
       style="opacity:0.81;fill:#e6e6e6;stroke:none;stroke-width:0.126468;stroke-miterlimit:3.5"
       d=""
       id="path1047"
       transform="matrix(0.26458333,0,0,0.26458333,17.946923,18.089576)" />
    <path
       style="opacity:0.81;fill:#e6e6e6;stroke:none;stroke-width:0.126468;stroke-miterlimit:3.5"
       d=""
       id="path1067"
       transform="matrix(0.26458333,0,0,0.26458333,17.946923,18.089576)" />
    <path
       style="opacity:0.81;fill:#e6e6e6;stroke:none;stroke-width:0.126468;stroke-miterlimit:3.5"
       d=""
       id="path1079"
       transform="matrix(0.26458333,0,0,0.26458333,17.946923,18.089576)" />
    <path
       style="opacity:0.81;fill:#e6e6e6;stroke:none;stroke-width:0.126468;stroke-miterlimit:3.5"
       d=""
       id="path1081"
       transform="matrix(0.26458333,0,0,0.26458333,17.946923,18.089576)" />
    <path
       style="opacity:0.81;fill:#e6e6e6;stroke:none;stroke-width:0.126468;stroke-miterlimit:3.5"
       d=""
       id="path1093"
       transform="matrix(0.26458333,0,0,0.26458333,17.946923,18.089576)" />
    <path
       style="opacity:0.81;fill:#e6e6e6;stroke:none;stroke-width:0.126468;stroke-miterlimit:3.5"
       d=""
       id="path1095"
       transform="matrix(0.26458333,0,0,0.26458333,17.946923,18.089576)" />
    <path
       style="opacity:0.81;fill:#e6e6e6;stroke:none;stroke-width:0.0334613;stroke-miterlimit:3.5"
       d="m 141.94878,110.73116 c -0.41535,-0.27399 -0.58287,-0.36281 -0.92219,-0.48896 -0.16866,-0.0627 -0.43902,-0.19729 -0.60079,-0.29907 -0.16177,-0.10178 -0.37681,-0.22336 -0.47787,-0.27017 -0.10106,-0.0468 -0.28043,-0.1458 -0.39859,-0.21997 -0.11817,-0.0742 -0.33294,-0.18312 -0.47727,-0.24213 -0.14434,-0.059 -0.36812,-0.18681 -0.4973,-0.28399 -0.15454,-0.11626 -0.26716,-0.17668 -0.32931,-0.17668 -0.0519,0 -0.10219,-0.0202 -0.11165,-0.0448 -0.0275,-0.0718 -0.33277,-0.25749 -0.9421,-0.57312 -0.31237,-0.1618 -0.70325,-0.36507 -0.86862,-0.4517 -0.16538,-0.0866 -0.51115,-0.26662 -0.7684,-0.39998 -0.25725,-0.13337 -0.6331,-0.32913 -0.83522,-0.43504 -0.20212,-0.10591 -0.53287,-0.27897 -0.73499,-0.38459 -0.20212,-0.10562 -0.4577,-0.25495 -0.56795,-0.33184 -0.11025,-0.0769 -0.50113,-0.29495 -0.86862,-0.48457 -0.76213,-0.39323 -1.21238,-0.65042 -1.39779,-0.79843 -0.0705,-0.0563 -0.21336,-0.13336 -0.31738,-0.17123 -0.10402,-0.0379 -0.24926,-0.10085 -0.32276,-0.13996 -0.12487,-0.0664 -0.88194,-0.61383 -0.91874,-0.66428 -0.009,-0.0126 -0.10931,-0.0695 -0.2225,-0.1264 -0.38349,-0.19287 -0.56346,-0.61891 -0.44367,-1.05029 0.0459,-0.16534 0.20247,-0.34 0.413,-0.46075 0.18697,-0.10724 0.3118,-0.12473 0.34131,-0.0478 0.0134,0.035 0.068,0.0501 0.18103,0.0501 0.12064,0 0.19833,0.0238 0.30545,0.0935 0.14053,0.0914 0.30747,0.16414 0.71161,0.31006 0.11025,0.0398 0.2661,0.1226 0.34633,0.18398 0.0802,0.0614 0.23018,0.13612 0.33322,0.16608 0.10303,0.0299 0.23936,0.10014 0.30295,0.15597 0.13013,0.11425 0.41966,0.25871 0.52089,0.2599 0.13066,0.002 0.21526,0.0415 0.23726,0.11205 0.0302,0.0968 0.0741,0.12057 0.22377,0.12117 0.1421,5.3e-4 0.22571,0.0385 0.55488,0.2514 0.12538,0.0811 0.30139,0.17664 0.39113,0.21229 0.0898,0.0357 0.27975,0.11892 0.42223,0.18503 0.14248,0.0661 0.26547,0.1202 0.27331,0.1202 0.0146,0 1.05694,0.50659 2.47441,1.20265 0.441,0.21655 0.9747,0.4763 1.18601,0.57723 0.21131,0.10092 0.66233,0.31845 1.00226,0.48339 0.33994,0.16494 0.70075,0.33829 0.80181,0.38522 0.10106,0.0469 0.33409,0.15547 0.51784,0.24119 0.37244,0.17376 0.53274,0.19985 0.6067,0.0988 0.1577,-0.21551 0.31055,-1.37179 0.32218,-2.43721 0.007,-0.59815 -0.017,-0.7517 -0.11509,-0.7517 -0.0197,0 -0.0638,-0.0356 -0.098,-0.0791 -0.0342,-0.0435 -0.17168,-0.14317 -0.30549,-0.2215 -0.1338,-0.0783 -0.43594,-0.27202 -0.6714,-0.43042 -1.24936,-0.84039 -1.60874,-1.06458 -2.02742,-1.26476 -0.13781,-0.0659 -0.37084,-0.19745 -0.51783,-0.29236 -0.147,-0.0949 -0.34244,-0.21492 -0.43432,-0.26669 -0.19448,-0.1096 -0.29817,-0.17392 -0.68488,-0.42485 -0.15618,-0.10134 -0.42416,-0.25687 -0.5955,-0.34561 -0.27688,-0.14339 -0.32006,-0.17832 -0.38823,-0.31399 -0.0422,-0.084 -0.0877,-0.19023 -0.10111,-0.23616 -0.0134,-0.0459 -0.0696,-0.14103 -0.12485,-0.21133 l -0.10044,-0.127796 0.0704,-0.0656 c 0.0495,-0.0461 0.0704,-0.10629 0.0704,-0.20234 0,-0.1119 0.0204,-0.15596 0.1122,-0.24256 0.26818,-0.25293 0.81913,-0.253 1.59164,-2.3e-4 0.13781,0.0451 0.28064,0.0949 0.31739,0.11066 0.0368,0.0158 0.1495,0.0598 0.25056,0.0978 0.10106,0.038 0.43933,0.16949 0.7517,0.29212 1.24044,0.486996 1.44636,0.550426 1.634,0.503336 0.20975,-0.0526 0.17692,-0.543876 -0.0795,-1.189756 -0.18202,-0.45846 -0.61922,-1.27213 -1.11716,-2.07913 -0.40465,-0.65579 -0.58055,-0.947945 -1.08149,-1.79626 -0.18772,-0.317881 -0.41711,-0.67986 -0.44462,-0.701582 -0.0116,-0.0092 -0.13431,-0.212146 -0.27261,-0.45102 -0.13831,-0.238871 -0.29094,-0.501965 -0.33918,-0.584649 -0.0482,-0.08269 -0.2016,-0.37459 -0.34081,-0.648674 -0.13921,-0.274085 -0.31364,-0.59417 -0.38761,-0.711303 -0.074,-0.117131 -0.14705,-0.268798 -0.16238,-0.337037 -0.0154,-0.06824 -0.14139,-0.360439 -0.28012,-0.649338 -0.13873,-0.288896 -0.25224,-0.532752 -0.25224,-0.541901 0,-0.0092 -0.043,-0.110969 -0.0955,-0.226272 -0.3686,-0.808992 -0.77462,-2.080678 -0.98824,-3.095214 l -0.087,-0.41333 0.005,-2.676975 c 0.003,-1.472334 0.0184,-2.842347 0.0349,-3.04447 0.0589,-0.722032 0.22344,-1.413587 0.47682,-2.00452 0.0788,-0.183748 0.16923,-0.401738 0.20098,-0.484426 0.0979,-0.254976 0.30783,-0.606385 0.51889,-0.868627 0.11091,-0.137811 0.29549,-0.37369 0.41018,-0.524174 0.2383,-0.312679 0.30849,-0.345808 0.64886,-0.306247 0.25321,0.02943 0.39421,0.09922 0.48298,0.23904 0.0633,0.09971 0.0666,0.143624 0.0493,0.647954 -0.0102,0.29755 -0.0433,0.796369 -0.0735,1.108488 -0.0587,0.605618 -0.0498,0.750609 0.0542,0.882756 0.11548,0.146809 0.48299,0.363468 1.65312,0.974566 0.20213,0.105558 0.45019,0.247502 0.55125,0.315428 0.10106,0.06793 0.23637,0.14387 0.30068,0.168759 0.32754,0.12676 2.04833,0.997323 2.53415,1.282049 0.11491,0.06735 0.21512,0.12246 0.22267,0.12246 0.008,0 0.15333,0.08008 0.32395,0.177946 0.17061,0.09787 0.45303,0.253854 0.62759,0.34663 0.17456,0.09278 0.4151,0.224526 0.53454,0.292778 0.11944,0.06825 0.42763,0.23029 0.68488,0.36009 0.60724,0.306395 1.712,0.932595 1.90437,1.079433 0.0828,0.06316 0.20837,0.127858 0.27916,0.143762 0.0708,0.0159 0.22696,0.104238 0.34707,0.196297 0.12011,0.09206 0.32313,0.207407 0.45116,0.256328 0.27239,0.104087 0.44475,0.242171 0.66139,0.529868 0.39484,0.524335 0.43294,0.942292 0.10201,1.118952 -0.16203,0.08649 -0.42644,0.175133 -0.52244,0.175133 -0.14107,0 -0.95099,-0.302416 -1.63926,-0.612082 -0.0992,-0.04462 -0.3156,-0.141515 -0.48097,-0.215334 -0.16538,-0.07382 -0.40592,-0.182255 -0.53454,-0.240974 -0.12863,-0.05872 -0.28648,-0.129371 -0.35079,-0.157007 -0.0643,-0.02764 -0.17707,-0.07711 -0.25057,-0.109942 -0.0735,-0.03283 -0.34787,-0.153911 -0.60971,-0.269068 -0.26184,-0.115157 -0.47607,-0.222223 -0.47607,-0.237929 0,-0.01572 -0.0113,-0.02677 -0.0251,-0.02461 -0.0667,0.01053 -0.11502,-0.01151 -0.21599,-0.09848 -0.1778,-0.153146 -0.4664,-0.29651 -2.06415,-1.025379 -0.21131,-0.0964 -0.48435,-0.222115 -0.60676,-0.279376 -0.12241,-0.05726 -0.22971,-0.104108 -0.23845,-0.104108 -0.009,0 -0.1792,-0.07635 -0.3788,-0.169654 -0.1996,-0.09331 -0.43807,-0.204689 -0.52995,-0.24751 -0.0919,-0.04282 -0.4602,-0.207962 -0.81851,-0.366985 -0.35831,-0.15902 -0.69657,-0.309462 -0.7517,-0.334311 -0.0551,-0.02484 -0.19043,-0.07803 -0.30067,-0.118166 -0.69746,-0.253928 -0.86433,-0.279519 -1.08584,-0.166513 -0.21151,0.107908 -0.21711,0.15222 -0.21711,1.721644 0,1.262189 0.005,1.381741 0.0618,1.507903 0.0607,0.134646 0.16508,0.211521 0.28709,0.211521 0.034,0 0.19488,0.08812 0.35757,0.195815 0.45867,0.303636 0.90097,0.550059 1.68837,0.940666 0.82683,0.410165 0.91446,0.460785 1.78125,1.028951 0.80225,0.525854 1.19776,0.824079 1.44874,1.092385 0.23318,0.249269 0.28655,0.383977 0.26314,0.664186 -0.0234,0.280223 -0.10125,0.454422 -0.24768,0.554366 -0.18991,0.129614 -0.39567,0.109987 -0.99997,-0.09538 -0.27754,-0.09432 -0.55701,-0.171492 -0.62105,-0.171492 -0.0911,0 -0.12453,-0.01778 -0.15369,-0.08178 -0.0262,-0.05753 -0.0875,-0.09669 -0.20663,-0.132078 -0.17918,-0.05321 -0.68217,-0.247478 -0.91455,-0.353229 -0.97608,-0.444174 -1.66917,-0.633582 -1.7892,-0.488953 -0.12136,0.14622 0.0865,0.787895 0.55627,1.717482 0.18849,0.372981 0.34278,0.703726 0.34286,0.734992 7e-5,0.03126 0.0459,0.124497 0.10182,0.207182 0.123,0.181866 0.31264,0.50257 0.484,0.818512 0.49644,0.915292 0.64381,1.004414 1.65242,0.999294 0.96243,-0.0049 2.20486,-0.18501 3.40769,-0.494051 1.138,-0.292383 1.81797,-0.528328 2.92326,-1.014344 0.8004,-0.351954 1.26743,-0.6048 2.0311,-1.099624 0.17999,-0.116626 0.34035,-0.212048 0.35636,-0.212048 0.016,0 0.0341,-0.01241 0.0402,-0.0276 0.006,-0.01519 0.1314,-0.107963 0.2784,-0.206184 0.87554,-0.585026 2.08507,-1.794158 2.97441,-2.973449 0.22113,-0.293219 0.51655,-0.658595 0.66581,-0.823473 0.28752,-0.317595 0.8514,-0.854326 0.94342,-0.897991 0.34688,-0.164605 0.75356,0.0973 0.9352,0.602271 0.0918,0.255099 0.0678,0.438936 -0.1092,0.838206 -0.29394,0.663022 -0.57346,1.168818 -0.84766,1.533813 -0.1449,0.192884 -2.05835,2.131237 -2.57448,2.607995 -0.13799,0.127458 -0.37102,0.320763 -0.51784,0.429562 -0.14682,0.108802 -0.35961,0.285451 -0.47286,0.392554 -0.11325,0.107101 -0.23648,0.194731 -0.27385,0.194731 -0.0374,0 -0.1627,0.07167 -0.27851,0.159263 -0.27867,0.210762 -0.34517,0.24942 -1.02525,0.595985 -0.31944,0.16279 -0.62009,0.3376 -0.6681,0.388466 -0.048,0.05087 -0.13994,0.102021 -0.2043,0.113671 -0.16057,0.02908 -0.54681,0.18406 -0.98562,0.395507 -0.56794,0.273664 -0.77834,0.355626 -1.08579,0.422979 -0.30395,0.06659 -0.62415,0.182708 -0.69473,0.251941 -0.0512,0.05025 -0.19612,0.08852 -0.55357,0.146201 -0.18043,0.02912 -0.29132,0.06644 -0.35394,0.119129 -0.0932,0.07841 -0.25977,0.115432 -1.2709,0.282421 -1.04959,0.173337 -1.31373,0.253918 -1.45132,0.442759 -0.11134,0.152789 -0.0918,0.581463 0.046,1.008103 0.0593,0.18375 0.12705,0.41677 0.15048,0.51784 0.0235,0.10106 0.10611,0.33408 0.18374,0.51783 0.28186,0.66724 0.55334,1.45322 0.73509,2.128216 0.0332,0.12315 0.089,0.27349 0.12405,0.33408 0.0351,0.0606 0.0683,0.1703 0.0738,0.2438 0.006,0.0735 0.0389,0.19944 0.0741,0.27987 0.0352,0.0804 0.0641,0.16781 0.0641,0.19418 0,0.0263 0.0676,0.25488 0.15029,0.5078 0.11706,0.35819 0.15478,0.52946 0.1706,0.77467 0.0125,0.19398 0.0437,0.36612 0.0812,0.44846 0.098,0.21514 0.12599,0.36963 0.16863,0.93068 0.0373,0.48999 0.0258,2.8318 -0.0157,3.21201 -0.008,0.0735 -0.0243,0.26142 -0.0363,0.4176 -0.0283,0.37088 -0.0758,0.70183 -0.13767,0.96008 -0.0275,0.1146 -0.0645,0.33673 -0.0824,0.49362 -0.0178,0.15688 -0.0563,0.34876 -0.0856,0.42639 -0.0292,0.0776 -0.0968,0.30551 -0.15009,0.50642 -0.15075,0.56806 -0.32408,0.90124 -0.5011,0.96325 -0.0324,0.0113 -0.16543,-0.0548 -0.33409,-0.16607 z"
       id="path1097" />
  </g>
</svg>
